MOT_standard
version=1
nRows=35
nColumns=19
endheader
time	ground_force_vx	ground_force_vy	ground_force_vz	ground_force_px	ground_force_py	ground_force_pz	1_ground_force_vx	1_ground_force_vy	1_ground_force_vz	1_ground_force_px	1_ground_force_py	1_ground_force_pz	ground_torque_x	ground_torque_y	ground_torque_z	1_ground_torque_x	1_ground_torque_y	1_ground_torque_z	
5.58	-82.250585	684.492859	118.158217	0.669258	0.0	-0.519298	50.048088	30.042698	88.470161	0.0	0.0	0.0	42.505777	-21.408533	-149.949535	-3.640494	-7.805641	2.831787	
5.59	-115.381459	649.346985	134.729563	0.647855	0.0	-0.504758	77.642632	42.460335	88.209831	0.0	0.0	0.0	30.881714	-19.054305	-156.148487	-10.263624	-14.690283	-1.303193	
5.6	-132.89119	644.139893	177.148357	0.635392	0.0	-0.511154	72.315399	26.203356	122.225372	0.0	0.0	0.0	34.753811	-21.506795	-162.924065	-3.389199	-14.592419	3.311002	
5.61	-95.653088	675.704834	138.171517	0.655587	0.0	-0.510297	70.644402	17.490294	82.842781	0.337337	0.0	-0.795496	35.877796	-14.607132	-157.262065	-6.13161	-13.906555	-0.929315	
5.62	-102.692547	663.858215	141.577523	0.650736	0.0	-0.516108	60.809689	38.583969	88.451279	0.0	0.0	0.0	39.106464	-19.765994	-157.725097	-6.618829	-6.72056	2.339366	
5.63	-129.528567	665.057983	158.850764	0.64052	0.0	-0.517485	88.33976	31.892763	122.641655	0.0	0.0	0.0	40.092819	-19.037557	-164.804925	-9.670114	-22.100951	-1.515552	
5.64	-108.508562	671.633911	168.586877	0.645762	0.0	-0.514356	81.66452	29.836824	99.915459	0.0	0.0	0.0	38.387764	-19.081242	-162.913566	-9.826346	-10.941755	2.019597	
5.65	-85.706547	703.752136	132.033973	0.663498	0.0	-0.533614	56.750015	19.186436	86.297401	0.0	0.0	0.0	53.77676	-16.226522	-158.222645	-4.879552	-11.165478	-0.134139	
5.66	-100.887708	718.205872	122.678368	0.668621	0.0	-0.542369	67.582886	29.656149	73.347206	0.0	0.0	0.0	61.168557	-11.218007	-157.792349	0.594992	-15.662957	2.148737	
5.67	-165.690825	680.352966	198.794279	0.642879	0.0	-0.540958	94.98423	48.648121	147.326782	0.0	0.0	0.0	56.98524	-20.293031	-166.990036	-14.141972	-9.146191	2.137234	
5.68	-94.533909	693.393127	135.47892	0.664987	0.0	-0.549702	56.277576	22.268751	65.135078	0.0	0.0	0.0	64.140202	-13.666419	-154.861068	-8.218741	-13.609055	-1.160466	
5.69	-101.97485	693.529846	141.74006	0.666673	0.0	-0.562999	48.846699	25.713017	87.120674	0.0	0.0	0.0	73.374589	-11.368303	-153.722178	-1.630034	-7.542652	0.152938	
5.7	-108.05202	686.218689	149.376489	0.667714	0.0	-0.559573	63.623276	24.410566	81.559731	0.0	0.0	0.0	70.250003	-10.709756	-151.387334	-1.97649	-18.455486	1.350183	
5.71	-102.01778	677.275391	137.589425	0.666597	0.0	-0.575406	53.014111	38.269356	95.252525	0.0	0.0	0.0	80.057988	-10.076686	-150.170944	-18.721422	-1.24432	-2.227876	
5.72	-89.311466	671.119934	142.278755	0.66976	0.0	-0.57219	63.734612	31.124474	62.545353	0.0	0.0	0.0	77.17198	-10.490979	-146.683272	-13.551377	-17.30692	-3.078556	
5.73	-96.775897	663.56604	150.324669	0.669085	0.0	-0.582402	44.86721	35.221138	86.906616	0.0	0.0	0.0	83.080012	-7.001287	-145.480194	-9.696161	-14.245626	-3.645884	
5.74	-101.238544	649.46759	144.785165	0.664435	0.0	-0.585644	74.366913	12.659151	101.733757	0.0	0.0	0.0	83.420246	-4.510068	-145.40896	9.102619	-8.832086	4.512105	
5.75	-93.304271	647.025635	143.485863	0.660872	0.0	-0.584474	57.792152	11.409117	47.488956	0.0	0.0	0.0	82.349519	-12.098312	-147.168022	-0.716539	-18.232646	1.947022	
5.76	-102.882059	650.300842	164.718926	0.657218	0.0	-0.590495	60.762535	41.554802	121.704163	0.0	0.0	0.0	86.682113	-7.65266	-150.288851	-6.596705	-1.73545	3.01332	
5.77	-105.605514	638.722839	192.89663	0.658882	0.0	-0.611299	74.039047	32.952232	79.960144	0.0	0.0	0.0	98.426558	-16.272829	-146.550352	-13.661196	-22.856449	-3.348145	
5.78	-105.940836	638.247498	157.434777	0.661482	0.0	-0.610884	52.213062	21.068672	82.111565	0.0	0.0	0.0	98.088285	-1.196122	-144.781742	-3.718012	-11.713224	-0.488859	
5.79	-118.478706	635.499756	190.396036	0.655291	0.0	-0.611579	83.157715	21.436872	107.680054	0.0	0.0	0.0	98.107933	-12.245723	-148.09318	3.693189	-12.636968	1.300166	
5.8	-113.337196	625.301453	196.471796	0.649365	0.0	-0.616503	71.914345	37.200695	98.141571	0.237941	0.0	-1.024079	99.612589	-10.926185	-149.422008	-2.499267	-8.451145	2.584588	
5.81	-111.070915	631.378845	189.226251	0.653278	0.0	-0.621149	65.858315	33.71978	96.37899	0.0	0.0	0.0	103.514043	-7.277183	-148.403868	-0.194146	-14.041726	0.391165	
5.82	-100.474649	649.358704	170.453484	0.662215	0.0	-0.62588	61.60067	16.415428	90.532295	0.0	0.0	0.0	109.533816	-6.685511	-146.826712	3.060303	-9.416318	-1.410479	
5.83	-78.101055	656.870422	137.812873	0.668699	0.0	-0.618272	54.344292	17.806202	72.577888	0.189755	0.0	-0.8035	105.80348	3.183848	-144.265931	4.319898	-18.327959	-0.891583	
5.84	-94.443611	658.57605	182.852882	0.662738	0.0	-0.635267	54.453285	36.537422	91.958321	0.0	0.0	0.0	117.270714	-15.319648	-148.566353	-12.796798	2.385004	2.05094	
5.85	-118.126289	650.517029	190.401178	0.653263	0.0	-0.640128	67.661842	25.904198	81.626976	0.0	0.0	0.0	118.997495	-0.817312	-152.912088	-5.098762	-26.176945	1.97683	
5.86	-112.038788	654.383423	183.237344	0.659483	0.0	-0.640282	57.102966	17.565376	105.45578	0.279115	0.0	-0.915607	119.805566	-10.134812	-149.75051	-5.757911	-4.458262	-3.320918	
5.87	-109.475511	658.817505	174.560922	0.657874	0.0	-0.649475	80.923019	13.785957	91.418381	0.0	0.0	0.0	126.674292	0.6905	-151.825432	8.476304	-16.593877	4.555109	
5.88	-67.153339	688.552185	138.743841	0.670547	0.0	-0.636935	43.510075	16.846151	63.625648	0.0	0.0	0.0	123.757175	-3.640904	-149.951604	-1.376053	-12.205747	0.807278	
5.89	-91.619043	696.081909	170.519768	0.667885	0.0	-0.645747	57.534279	34.838932	89.394218	0.0	0.0	0.0	131.243972	-4.465047	-153.444339	-12.713797	-8.344677	-0.18185	
5.9	-121.197473	675.817505	175.275721	0.660023	0.0	-0.662387	73.696472	31.024555	100.578819	0.254017	0.0	-0.876182	138.668831	7.191254	-154.290168	-18.130734	-13.350904	-3.274101	
5.91	-94.366295	673.408081	183.479225	0.661799	0.0	-0.659642	44.460941	11.41934	58.230671	0.407318	0.0	-0.473196	136.325831	-16.216322	-152.544605	2.5557	-23.062422	-0.979344	
5.92	-107.064827	689.399231	187.450036	0.654539	0.0	-0.649859	75.571602	34.32177	121.153084	0.291123	0.0	-1.015295	132.819174	4.244857	-161.171667	11.240764	-8.033934	6.124129	
